# xmcd
#
# Track frame offsets:
#	150
#	600
#	1054
#	3137
#	26675
#	58464
#	80207
#	101236
#	118680
#	139070
#	161417
#	182098
#	204704
#	233905
#	255221
#	275164
#
# Disc length: 3907 seconds
#
# Revision: 2
# Processed by: cddbd v1.5.2PL0 Copyright (c) Steve Scherf et al.
# Submitted via: audiograbber 1.83.01
#
DISCID=d50f4110
DTITLE=Karin Alvtegen - Skam - Skam CD 01-08
DYEAR=2005
DGENRE=Book
TTITLE0=01.01
TTITLE1=01.02
TTITLE2=01.03
TTITLE3=01.04
TTITLE4=01.05
TTITLE5=01.06
TTITLE6=01.07
TTITLE7=01.08
TTITLE8=01.09
TTITLE9=01.10
TTITLE10=01.11
TTITLE11=01.12
TTITLE12=01.13
TTITLE13=01.14
TTITLE14=01.15
TTITLE15=01.16
EXTD=
EXTT0=
EXTT1=
EXTT2=
EXTT3=
EXTT4=
EXTT5=
EXTT6=
EXTT7=
EXTT8=
EXTT9=
EXTT10=
EXTT11=
EXTT12=
EXTT13=
EXTT14=
EXTT15=
PLAYORDER=
